<?xml version="1.0" encoding="utf-8"?>
<!-- Generator: Adobe Illustrator 22.0.1, SVG Export Plug-In . SVG Version: 6.00 Build 0)  -->
<svg version="1.1" id="Capa_1" xmlns="http://www.w3.org/2000/svg" xmlns:xlink="http://www.w3.org/1999/xlink" x="0px" y="0px"
	 viewBox="0 0 512 306" style="enable-background:new 0 0 512 306;" xml:space="preserve">
<style type="text/css">
	.st0{fill:#444444;}
	.st1{fill:#73D700;}
</style>
<path class="st0" d="M204.8,155c0,14.1-11.5,25.6-25.6,25.6H25.6C11.5,180.6,0,169.1,0,155c0-14.1,11.5-25.6,25.6-25.6h153.6
	C193.3,129.4,204.8,140.9,204.8,155z M179.2,231.8H25.6C11.5,231.8,0,243.3,0,257.4S11.5,283,25.6,283h153.6
	c14.1,0,25.6-11.5,25.6-25.6S193.3,231.8,179.2,231.8z M179.2,27H25.6C11.5,27,0,38.5,0,52.6s11.5,25.6,25.6,25.6h153.6
	c14.1,0,25.6-11.5,25.6-25.6S193.3,27,179.2,27z"/>
<g id="XMLID_1_">
	<g>
		<path class="st1" d="M496.6,129.4c14.1,0,15.4,11.5,15.4,25.6c0,14.1-1.2,25.6-15.4,25.6h-87v87c0,14.2-11.5,15.4-25.6,15.4
			s-25.6-1.2-25.6-15.4v-87h-84.5c-14.1,0-15.4-11.4-15.4-25.6c0-14.1,1.2-25.6,15.4-25.6h84.5v-87c0-14.1,11.5-15.4,25.6-15.4
			s25.6,1.2,25.6,15.4v87H496.6z"/>
	</g>
	<g>
	</g>
</g>
</svg>
