<svg id="Capa_1" data-name="Capa 1" xmlns="http://www.w3.org/2000/svg" viewBox="0 0 256 306.15"><defs><style>.cls-1{fill:#444;}.cls-2{fill:#fff;}.cls-3{fill:#73d700;}</style></defs><title>add-list</title><path class="cls-1" d="M256,153c0,16.85-14.38,30.6-32,30.6H32c-17.63,0-32-13.75-32-30.6s14.37-30.6,32-30.6H224C241.62,122.4,256,136.15,256,153Zm-32,91.8H32c-17.63,0-32,13.75-32,30.6S14.37,306,32,306H224c17.63,0,32-13.75,32-30.6S241.62,244.8,224,244.8ZM224,0H32C14.37,0,0,13.75,0,30.6S14.37,61.2,32,61.2H224c17.63,0,32-13.75,32-30.6S241.62,0,224,0Z"/><rect class="cls-2" x="186.16" y="226.72" width="64.54" height="22.16"/><rect class="cls-2" x="164.36" y="222.5" width="36.25" height="83.65" rx="8.78" ry="8.78"/><rect class="cls-2" x="164.06" y="158" width="36.25" height="83.65" rx="7.09" ry="7.09"/><rect class="cls-2" x="108.56" y="227.43" width="72.34" height="22.16" rx="9.34" ry="9.34"/><g id="_Group_" data-name="&lt;Group&gt;"><path class="cls-3" d="M247.15,217.76c8.1,0,8.85,6.6,8.85,14.7s-.69,14.71-8.85,14.71h-50v50c0,8.16-6.61,8.85-14.71,8.85s-14.7-.69-14.7-8.85v-50H119.21c-8.1,0-8.85-6.55-8.85-14.71s.69-14.7,8.85-14.7h48.55v-50c0-8.1,6.6-8.84,14.7-8.84s14.71.69,14.71,8.84v50Z"/></g></svg>