<?xml version="1.0" encoding="utf-8"?>
<!-- Generator: Adobe Illustrator 22.0.1, SVG Export Plug-In . SVG Version: 6.00 Build 0)  -->
<svg version="1.1" id="Capa_1" xmlns="http://www.w3.org/2000/svg" xmlns:xlink="http://www.w3.org/1999/xlink" x="0px" y="0px"
	 viewBox="0 0 512 512" style="enable-background:new 0 0 512 512;" xml:space="preserve">
<style type="text/css">
	.st0{fill:#FFFFFF;stroke:#FFFFFF;stroke-miterlimit:10;}
	.st1{fill:none;}
	.st2{fill:#FFFFFF;}
	.st3{font-family:'Roboto-Bold';}
	.st4{font-size:140px;}
</style>
<g>
	<path class="st0" d="M181.5,5.2L3.1,183.6c-4.1,4.1-4.1,10.8,0,14.9l178.4,178.4c4.1,4.1,10.8,4.1,14.9,0l47.5-47.5
		c2-2,3.1-4.7,3.1-7.4c0-2.8-1.1-5.5-3.1-7.4l-76.5-76.5h334.1c5.8,0,10.5-4.7,10.5-10.5v-72.8c0-5.8-4.7-10.5-10.5-10.5H167.4
		l76.5-76.5c3.9-3.9,3.9-10.9,0-14.9L196.3,5.2c-2-2-4.7-3.1-7.4-3.1C186.1,2.1,183.4,3.2,181.5,5.2z"/>
</g>
<rect x="1" y="371.3" class="st1" width="513" height="126"/>
<text transform="matrix(1 0 0 1 71.6992 476.276)" class="st2 st3 st4">Terug</text>
</svg>
