<svg id="Capa_1" data-name="Capa 1" xmlns="http://www.w3.org/2000/svg" viewBox="0 0 470.82 512"><defs><style>.cls-1{fill:#fff;}</style></defs><title>book</title><path class="cls-1" d="M5.43,35.87A11.24,11.24,0,0,0,.11,45.4V393A11.2,11.2,0,0,0,6.3,403l218,109V139.37L16.35,35.37A11.34,11.34,0,0,0,5.43,35.87Zm460.16,0a11.23,11.23,0,0,0-10.89-.5l-208,104V512l218-109a11.19,11.19,0,0,0,6.19-10V45.4A11.31,11.31,0,0,0,465.59,35.87ZM424.9,6.16a11.21,11.21,0,0,0-15.07-4.94L235.51,89.44,61.19,1.25a11.21,11.21,0,1,0-10.13,20L230.44,112a11.23,11.23,0,0,0,10.14,0L420,21.25A11.22,11.22,0,0,0,424.9,6.16Z" transform="translate(-0.11 0)"/></svg>