<?xml version="1.0" encoding="utf-8"?>
<!-- Generator: Adobe Illustrator 22.0.1, SVG Export Plug-In . SVG Version: 6.00 Build 0)  -->
<svg version="1.1" id="Capa_1" xmlns="http://www.w3.org/2000/svg" xmlns:xlink="http://www.w3.org/1999/xlink" x="0px" y="0px"
	 viewBox="0 0 512 512" style="enable-background:new 0 0 512 512;" xml:space="preserve">
<style type="text/css">
	.st0{fill:#73D700;}
</style>
<g>
	<g>
		<g id="XMLID_1_">
			<g>
				<path class="st0" d="M512,156.6c0,48.2-22.9,97.7-64.5,139.2L263.9,482.2c-2.1,2.1-4.9,3.3-7.9,3.3s-5.8-1.2-7.9-3.3L64.4,295.8
					C22.9,254.3,0,204.8,0,156.6C0,78.8,51.7,26.5,128.7,26.5c66.2,0,92.4,29.4,127.3,70.4c34.9-41,61.1-70.4,127.3-70.4
					C460.3,26.5,512,78.8,512,156.6z M431.9,280.3c37.5-37.5,58-81.4,58-123.7c0-65.6-41.9-108-106.6-108
					c-57.2,0-78,24.4-112.4,64.9l-6.5,7.6c-2.1,2.5-5.2,3.9-8.4,3.9c-1.6,0-3.2-0.3-4.6-1c-1.4-0.7-2.7-1.6-3.8-2.9l-6.4-7.6
					c-34.5-40.5-55.3-65-112.5-65c-64.8,0-106.6,42.4-106.6,108c0,42.3,20.6,86.2,58,123.6L256,458.7L431.9,280.3z"/>
			</g>
			<g>
			</g>
		</g>
	</g>
</g>
</svg>
