<?xml version="1.0" encoding="utf-8"?>
<!-- Generator: Adobe Illustrator 22.0.1, SVG Export Plug-In . SVG Version: 6.00 Build 0)  -->
<svg version="1.1" id="Capa_1" xmlns="http://www.w3.org/2000/svg" xmlns:xlink="http://www.w3.org/1999/xlink" x="0px" y="0px"
	 viewBox="0 0 90 90" style="enable-background:new 0 0 90 90;" xml:space="preserve">
<style type="text/css">
	.st0{fill:#444444;}
	.st1{fill:#73D700;}
</style>
<g>
	<g id="XMLID_4_">
		<g>
			<path class="st0" d="M70,0c8.3,0,15,6.7,15,15c0,8.3-6.7,15-15,15c-3.4,0-6.6-1.2-9.1-3.1L34.8,42.5c0.1,0.8,0.2,1.6,0.2,2.4
				s-0.1,1.7-0.2,2.5l26.1,15.7c2.5-2,5.7-3.1,9.1-3.1c8.3,0,15,6.7,15,15c0,8.3-6.7,15-15,15s-15-6.7-15-15c0-0.8,0.1-1.7,0.2-2.5
				L29.1,56.9C26.6,58.8,23.4,60,20,60c-8.3,0-15-6.7-15-15c0-8.3,6.7-15,15-15c3.4,0,6.6,1.2,9.1,3.1l26.1-15.7
				C55.1,16.7,55,15.8,55,15C55,6.7,61.7,0,70,0z"/>
		</g>
		<g>
		</g>
	</g>
</g>
<g id="XMLID_1_">
	<g>
		<path class="st1" d="M69.9,0C78.3,0,85,6.7,85,15.1s-6.7,15.1-15.1,15.1c-8.3,0-15.1-6.8-15.1-15.1S61.6,0,69.9,0z"/>
	</g>
	<g>
	</g>
</g>
<g id="XMLID_2_">
	<g>
		<path class="st1" d="M69.9,59.9c8.3,0,15.1,6.8,15.1,15.1S78.3,90,69.9,90c-8.3,0-15.1-6.8-15.1-15.1S61.6,59.9,69.9,59.9z"/>
	</g>
	<g>
	</g>
</g>
<g id="XMLID_3_">
	<g>
		<circle class="st1" cx="19.9" cy="45.1" r="15.1"/>
	</g>
	<g>
	</g>
</g>
</svg>
