<?xml version="1.0" encoding="utf-8"?>
<!-- Generator: Adobe Illustrator 22.0.1, SVG Export Plug-In . SVG Version: 6.00 Build 0)  -->
<svg version="1.1" id="Capa_1" xmlns="http://www.w3.org/2000/svg" xmlns:xlink="http://www.w3.org/1999/xlink" x="0px" y="0px"
	 viewBox="0 0 512 512" style="enable-background:new 0 0 512 512;" xml:space="preserve">
<style type="text/css">
	.st0{fill:#FFFFFF;}
	.st1{fill:none;}
	.st2{fill:#FFFFFF;stroke:#FFFFFF;stroke-miterlimit:10;}
	.st3{font-family:'RobotoCondensed-Bold';}
	.st4{font-size:100px;}
</style>
<g>
	<path id="Expand_Less" class="st0" d="M274.3,12.9c-9.9-9.9-26.6-9.9-36.5,0L7.6,242.5c-10.1,10.1-10.1,26.4,0,36.5
		c10,10,26.4,10,36.5,0L256,67.6L467.9,279c10.1,10.1,26.4,10.1,36.5,0s10.1-26.4,0-36.5L274.3,12.9z"/>
</g>
<rect x="27" y="334.3" class="st1" width="443" height="106"/>
<rect x="-1" y="386.3" class="st1" width="512" height="127"/>
<text transform="matrix(1 0 0 1 112.7148 461.276)" class="st2 st3 st4">BOVEN</text>
<rect x="-1" y="280.3" class="st1" width="512" height="127"/>
<text transform="matrix(1 0 0 1 136.9824 355.276)" class="st2 st3 st4">NAAR</text>
</svg>
